<svg width="155px" height="30px" viewBox="0 0 155 30" version="1.1" xmlns="http://www.w3.org/2000/svg" xmlns:xlink="http://www.w3.org/1999/xlink">
	                            <title>logo</title>
	                            <desc>Created with Sketch.</desc>
	                            <defs></defs>
	                            <g id="Symbols" stroke="none" stroke-width="1" fill="none" fill-rule="evenodd">
	                                <g id="header/new/about" transform="translate(-46.000000, -65.000000)" fill="#FFFFFF">
	                                    <g id="logo" className="logo__icon" transform="translate(46.000000, 65.000000)">
	                                        <path d="M29.14,9.0004 C26.937,9.0004 25,10.9064 25,13.0034 L25,16.9964 C25,19.0934 26.937,21.0004 29.14,21.0004 L30,21.0004 L30,25.0624 C30,28.0874 28.369,30.0004 25.345,30.0004 L5.291,30.0004 C2.267,30.0004 0,28.0874 0,25.0624 L0,21.0004 L1.496,21.0004 C3.699,21.0004 5,19.0934 5,16.9964 L5,13.0034 C5,10.9064 3.699,9.0004 1.496,9.0004 L0,9.0004 L0,4.9374 C0,1.9124 2.267,0.0004 5.291,0.0004 L25.345,0.0004 C28.369,0.0004 30,1.9124 30,4.9374 L30,9.0004 L29.14,9.0004 Z M23,20.0234 L23,12.9764 C23,9.1234 20.203,6.0004 16.358,6.0004 L14.277,6.0004 C10.433,6.0004 7,9.1234 7,12.9764 L7,20.0234 C7,23.8774 10.433,27.0004 14.277,27.0004 L16.358,27.0004 C20.203,27.0004 23,23.8774 23,20.0234 Z M22,13.1341 L22,19.8661 C22,23.2541 19.333,26.0001 16.043,26.0001 L13.957,26.0001 C10.667,26.0001 8,23.2541 8,19.8661 L8,13.1341 C8,9.7461 10.667,7.0001 13.957,7.0001 L16.043,7.0001 C19.333,7.0001 22,9.7461 22,13.1341 Z M20,16.9961 L20,13.0041 C20,10.9061 18.128,9.0001 15.924,9.0001 L14.712,9.0001 C12.508,9.0001 10,10.9061 10,13.0041 L10,16.9961 C10,19.0941 12.508,21.0001 14.712,21.0001 L15.924,21.0001 C18.128,21.0001 20,19.0941 20,16.9961 Z M15.3906,19 C15.3906,19 15.8796,19.025 15.8796,19.51 C15.8796,19.992 15.3906,20 15.3906,20 L15.2786,20 C13.2006,20 10.9996,18.657 10.9996,16.521 L10.9996,15.022 C10.9996,15.022 10.9956,14.473 11.4956,14.473 C11.9976,14.473 11.9996,15.022 11.9996,15.022 L11.9996,16.521 C11.9996,18.108 13.7496,19 15.2786,19 L15.3906,19 Z" id="white-aviasales"></path>
	                                        <g id="text" className="logo__text" transform="translate(43.000000, 4.000000)">
	                                            <path d="M4.0352,16.2617 C5.2812,16.2617 6.2642,15.9047 6.9842,15.1937 C7.7032,14.4807 8.0622,13.4907 8.0622,12.2227 L8.0622,11.0727 L6.0212,11.1577 C4.3832,11.2387 3.2132,11.4937 2.5152,11.9277 C1.8162,12.3597 1.4672,13.0347 1.4672,13.9507 C1.4672,14.6817 1.6912,15.2497 2.1392,15.6547 C2.5862,16.0587 3.2192,16.2617 4.0352,16.2617 L4.0352,16.2617 Z M8.3322,17.0137 L8.0622,15.1657 L7.9762,15.1657 C7.3902,15.9177 6.7872,16.4487 6.1682,16.7617 C5.5472,17.0727 4.8142,17.2287 3.9712,17.2287 C2.8242,17.2287 1.9332,16.9337 1.2952,16.3477 C0.6582,15.7597 0.3402,14.9477 0.3402,13.9077 C0.3402,12.7697 0.8142,11.8847 1.7642,11.2557 C2.7112,10.6247 4.0842,10.2927 5.8832,10.2557 L8.1052,10.1917 L8.1052,9.4177 C8.1052,8.3087 7.8812,7.4707 7.4302,6.9047 C6.9782,6.3397 6.2522,6.0567 5.2482,6.0567 C4.1682,6.0567 3.0472,6.3577 1.8872,6.9587 L1.4882,6.0347 C2.7712,5.4337 4.0392,5.1327 5.2912,5.1327 C6.5742,5.1327 7.5312,5.4647 8.1662,6.1307 C8.7992,6.7967 9.1152,7.8357 9.1152,9.2457 L9.1152,17.0137 L8.3322,17.0137 Z" id="Fill-8"></path>
	                                            <path d="M15.4531,17.0137 L10.9411,5.3357 L12.0371,5.3357 L15.0571,13.2757 C15.4571,14.2907 15.7581,15.1797 15.9591,15.9397 L16.0231,15.9397 C16.3161,14.9647 16.6171,14.0707 16.9261,13.2537 L19.9431,5.3357 L21.0391,5.3357 L16.5271,17.0137 L15.4531,17.0137 Z" id="Fill-10"></path>
	                                            <path d="M22.995,17.014 L24.059,17.014 L24.059,5.336 L22.995,5.336 L22.995,17.014 Z M22.844,2.092 C22.844,1.404 23.07,1.061 23.521,1.061 C23.742,1.061 23.916,1.15 24.043,1.33 C24.168,1.509 24.23,1.764 24.23,2.092 C24.23,2.414 24.168,2.669 24.043,2.855 C23.916,3.041 23.742,3.135 23.521,3.135 C23.07,3.135 22.844,2.787 22.844,2.092 L22.844,2.092 Z" id="Fill-12"></path>
	                                            <path d="M30.7617,16.2617 C32.0077,16.2617 32.9907,15.9047 33.7107,15.1937 C34.4297,14.4807 34.7887,13.4907 34.7887,12.2227 L34.7887,11.0727 L32.7477,11.1577 C31.1097,11.2387 29.9397,11.4937 29.2417,11.9277 C28.5427,12.3597 28.1937,13.0347 28.1937,13.9507 C28.1937,14.6817 28.4177,15.2497 28.8657,15.6547 C29.3127,16.0587 29.9457,16.2617 30.7617,16.2617 L30.7617,16.2617 Z M35.0587,17.0137 L34.7887,15.1657 L34.7027,15.1657 C34.1167,15.9177 33.5137,16.4487 32.8947,16.7617 C32.2737,17.0727 31.5407,17.2287 30.6977,17.2287 C29.5507,17.2287 28.6597,16.9337 28.0217,16.3477 C27.3847,15.7597 27.0667,14.9477 27.0667,13.9077 C27.0667,12.7697 27.5407,11.8847 28.4907,11.2557 C29.4377,10.6247 30.8107,10.2927 32.6097,10.2557 L34.8317,10.1917 L34.8317,9.4177 C34.8317,8.3087 34.6077,7.4707 34.1567,6.9047 C33.7047,6.3397 32.9787,6.0567 31.9747,6.0567 C30.8947,6.0567 29.7737,6.3577 28.6137,6.9587 L28.2147,6.0347 C29.4977,5.4337 30.7657,5.1327 32.0177,5.1327 C33.3007,5.1327 34.2577,5.4647 34.8927,6.1307 C35.5257,6.7967 35.8417,7.8357 35.8417,9.2457 L35.8417,17.0137 L35.0587,17.0137 Z" id="Fill-14"></path>
	                                            <path d="M46.8633,13.9727 C46.8633,15.0197 46.4673,15.8227 45.6723,16.3847 C44.8773,16.9477 43.7483,17.2287 42.2873,17.2287 C40.7263,17.2287 39.4883,16.9887 38.5703,16.5077 L38.5703,15.3597 C39.7463,15.9457 40.9843,16.2407 42.2873,16.2407 C43.4413,16.2407 44.3163,16.0487 44.9143,15.6657 C45.5113,15.2817 45.8103,14.7717 45.8103,14.1347 C45.8103,13.5467 45.5723,13.0527 45.0953,12.6527 C44.6213,12.2497 43.8383,11.8577 42.7503,11.4707 C41.5823,11.0467 40.7613,10.6837 40.2893,10.3807 C39.8163,10.0767 39.4613,9.7327 39.2203,9.3497 C38.9803,8.9647 38.8613,8.4977 38.8613,7.9477 C38.8613,7.0727 39.2283,6.3827 39.9633,5.8727 C40.6953,5.3657 41.7223,5.1117 43.0393,5.1117 C44.3003,5.1117 45.4963,5.3477 46.6273,5.8207 L46.2303,6.7867 C45.0843,6.3147 44.0213,6.0777 43.0393,6.0777 C42.0883,6.0777 41.3323,6.2347 40.7733,6.5507 C40.2153,6.8657 39.9353,7.3027 39.9353,7.8617 C39.9353,8.4687 40.1523,8.9567 40.5863,9.3227 C41.0173,9.6877 41.8653,10.0957 43.1253,10.5467 C44.1773,10.9257 44.9453,11.2677 45.4243,11.5727 C45.9043,11.8767 46.2633,12.2227 46.5043,12.6097 C46.7443,12.9957 46.8633,13.4517 46.8633,13.9727" id="Fill-15"></path>
	                                            <path d="M52.6641,16.2617 C53.9101,16.2617 54.8931,15.9047 55.6131,15.1937 C56.3321,14.4807 56.6931,13.4907 56.6931,12.2227 L56.6931,11.0727 L54.6521,11.1577 C53.0121,11.2387 51.8421,11.4937 51.1441,11.9277 C50.4451,12.3597 50.0981,13.0347 50.0981,13.9507 C50.0981,14.6817 50.3201,15.2497 50.7681,15.6547 C51.2171,16.0587 51.8481,16.2617 52.6641,16.2617 L52.6641,16.2617 Z M56.9611,17.0137 L56.6931,15.1657 L56.6071,15.1657 C56.0191,15.9177 55.4161,16.4487 54.7971,16.7617 C54.1781,17.0727 53.4451,17.2287 52.6001,17.2287 C51.4551,17.2287 50.5621,16.9337 49.9261,16.3477 C49.2871,15.7597 48.9691,14.9477 48.9691,13.9077 C48.9691,12.7697 49.4431,11.8847 50.3931,11.2557 C51.3421,10.6247 52.7151,10.2927 54.5121,10.2557 L56.7361,10.1917 L56.7361,9.4177 C56.7361,8.3087 56.5101,7.4707 56.0591,6.9047 C55.6071,6.3397 54.8811,6.0567 53.8791,6.0567 C52.7971,6.0567 51.6761,6.3577 50.5161,6.9587 L50.1191,6.0347 C51.4001,5.4337 52.6681,5.1327 53.9221,5.1327 C55.2031,5.1327 56.1601,5.4647 56.7951,6.1307 C57.4281,6.7967 57.7461,7.8357 57.7461,9.2457 L57.7461,17.0137 L56.9611,17.0137 Z" id="Fill-16"></path>
	                                            <polygon id="Fill-17" points="61.528 17.014 62.59 17.014 62.59 0.299 61.528 0.299"></polygon>
	                                            <path d="M70.9043,6.0566 C69.7813,6.0566 68.8793,6.4276 68.1973,7.1676 C67.5173,7.9106 67.1193,8.9786 67.0063,10.3746 L74.2243,10.3746 C74.2243,9.0216 73.9293,7.9626 73.3433,7.2016 C72.7563,6.4376 71.9433,6.0566 70.9043,6.0566 M71.2163,17.2286 C69.5193,17.2286 68.1953,16.7046 67.2463,15.6606 C66.2993,14.6136 65.8243,13.1506 65.8243,11.2656 C65.8243,9.4046 66.2813,7.9116 67.1993,6.7926 C68.1153,5.6716 69.3513,5.1116 70.9043,5.1116 C72.2793,5.1116 73.3653,5.5896 74.1603,6.5506 C74.9553,7.5096 75.3513,8.8126 75.3513,10.4606 L75.3513,11.3206 L66.9413,11.3206 C66.9553,12.9236 67.3303,14.1486 68.0623,14.9946 C68.7973,15.8376 69.8473,16.2616 71.2163,16.2616 C71.8833,16.2616 72.4663,16.2146 72.9723,16.1206 C73.4763,16.0296 74.1173,15.8276 74.8903,15.5196 L74.8903,16.4866 C74.2303,16.7736 73.6233,16.9686 73.0643,17.0726 C72.5063,17.1756 71.8883,17.2286 71.2163,17.2286" id="Fill-18"></path>
	                                            <path d="M85.8145,13.9727 C85.8145,15.0197 85.4185,15.8227 84.6235,16.3847 C83.8285,16.9477 82.6995,17.2287 81.2385,17.2287 C79.6775,17.2287 78.4395,16.9887 77.5215,16.5077 L77.5215,15.3597 C78.6975,15.9457 79.9355,16.2407 81.2385,16.2407 C82.3925,16.2407 83.2675,16.0487 83.8655,15.6657 C84.4625,15.2817 84.7615,14.7717 84.7615,14.1347 C84.7615,13.5467 84.5235,13.0527 84.0465,12.6527 C83.5725,12.2497 82.7895,11.8577 81.7015,11.4707 C80.5335,11.0467 79.7125,10.6837 79.2405,10.3807 C78.7675,10.0767 78.4125,9.7327 78.1715,9.3497 C77.9315,8.9647 77.8125,8.4977 77.8125,7.9477 C77.8125,7.0727 78.1795,6.3827 78.9125,5.8727 C79.6465,5.3657 80.6735,5.1117 81.9905,5.1117 C83.2515,5.1117 84.4475,5.3477 85.5785,5.8207 L85.1815,6.7867 C84.0355,6.3147 82.9725,6.0777 81.9905,6.0777 C81.0395,6.0777 80.2835,6.2347 79.7245,6.5507 C79.1665,6.8657 78.8865,7.3027 78.8865,7.8617 C78.8865,8.4687 79.1035,8.9567 79.5355,9.3227 C79.9685,9.6877 80.8165,10.0957 82.0765,10.5467 C83.1285,10.9257 83.8965,11.2677 84.3755,11.5727 C84.8555,11.8767 85.2145,12.2227 85.4555,12.6097 C85.6955,12.9957 85.8145,13.4517 85.8145,13.9727" id="Fill-19"></path>
	                                            <path d="M88.6074,16.1758 C88.6074,15.4728 88.8944,15.1228 89.4664,15.1228 C90.0544,15.1228 90.3474,15.4728 90.3474,16.1758 C90.3474,16.8768 90.0544,17.2288 89.4664,17.2288 C88.8944,17.2288 88.6074,16.8768 88.6074,16.1758" id="Fill-20"></path>
	                                            <path d="M98.6523,5.1113 C99.1463,5.1113 99.6753,5.1603 100.2423,5.2613 L100.0373,6.2813 C99.5503,6.1603 99.0453,6.0993 98.5233,6.0993 C97.5273,6.0993 96.7113,6.5213 96.0743,7.3673 C95.4353,8.2113 95.1173,9.2793 95.1173,10.5683 L95.1173,17.0133 L94.0543,17.0133 L94.0543,5.3363 L94.9573,5.3363 L95.0643,7.4413 L95.1383,7.4413 C95.6193,6.5823 96.1313,5.9783 96.6753,5.6323 C97.2183,5.2853 97.8793,5.1113 98.6523,5.1113" id="Fill-21"></path>
	                                            <path d="M103.5391,5.3359 L103.5391,12.8979 C103.5391,14.0739 103.7871,14.9279 104.2811,15.4609 C104.7751,15.9939 105.5411,16.2619 106.5801,16.2619 C107.9691,16.2619 108.9901,15.9099 109.6461,15.2089 C110.3011,14.5059 110.6291,13.3649 110.6291,11.7809 L110.6291,5.3359 L111.6821,5.3359 L111.6821,17.0139 L110.7791,17.0139 L110.5861,15.4019 L110.5211,15.4019 C109.7641,16.6189 108.4121,17.2289 106.4731,17.2289 C103.8141,17.2289 102.4861,15.8069 102.4861,12.9629 L102.4861,5.3359 L103.5391,5.3359 Z" id="Fill-22"></path>
	                                        </g>
	                                    </g>
	                                </g>
	                            </g>
	                        </svg>
